<svg aria-hidden="true" style="position: absolute; width: 0; height: 0; overflow: hidden;" version="1.1" xmlns="http://www.w3.org/2000/svg" xmlns:xlink="http://www.w3.org/1999/xlink">
<defs>
<symbol id="icon-align-left" viewBox="0 0 32 32">
<path stroke-width="2.2857" stroke-miterlimit="4" stroke-linecap="round" stroke-linejoin="round" d="M22.667 13.333h-18.667"></path>
<path stroke-width="2.2857" stroke-miterlimit="4" stroke-linecap="round" stroke-linejoin="round" d="M28 8h-24"></path>
<path stroke-width="2.2857" stroke-miterlimit="4" stroke-linecap="round" stroke-linejoin="round" d="M28 18.667h-24"></path>
<path stroke-width="2.2857" stroke-miterlimit="4" stroke-linecap="round" stroke-linejoin="round" d="M22.667 24h-18.667"></path>
</symbol>
<symbol id="icon-arrow-right" viewBox="0 0 32 32">
<path stroke-width="3.2" stroke-miterlimit="4" stroke-linecap="round" stroke-linejoin="round" d="M5.333 16h21.333M26.667 16l-8-8M26.667 16l-8 8"></path>
</symbol>
<symbol id="icon-unfiled-arrow-down" viewBox="0 0 32 32">
<path d="M15.053 17.867c0.124 0.125 0.271 0.224 0.434 0.292s0.337 0.103 0.513 0.103 0.35-0.035 0.513-0.103c0.162-0.068 0.31-0.167 0.434-0.292l6.107-6.12c0.124-0.125 0.271-0.224 0.434-0.292s0.337-0.103 0.513-0.103c0.176 0 0.35 0.035 0.513 0.103s0.31 0.167 0.434 0.292c0.248 0.25 0.388 0.588 0.388 0.94s-0.139 0.69-0.388 0.94l-6.12 6.12c-0.75 0.749-1.767 1.17-2.827 1.17s-2.077-0.421-2.827-1.17l-6.12-6.12c-0.246-0.248-0.385-0.584-0.387-0.933-0.001-0.175 0.033-0.349 0.099-0.512s0.164-0.31 0.288-0.435c0.124-0.125 0.271-0.224 0.434-0.292s0.337-0.103 0.513-0.103c0.176 0 0.35 0.035 0.513 0.103s0.31 0.167 0.434 0.292l6.107 6.12z"></path>
</symbol>
<symbol id="icon-filed-arrow-down" viewBox="0 0 28 32">
<path d="M5.898 12h16.513l-7.423 8.391c-0.221 0.25-0.521 0.39-0.834 0.39s-0.613-0.14-0.834-0.39l-7.423-8.391z"></path>
</symbol>
<symbol id="icon-gerb" viewBox="0 0 20 32">
<path d="M9.005 30.888c-1.738-1.262-2.991-3.156-3.414-5.351h-5.591v-23.117c2.991 1.443 5.153 4.599 5.388 7.876l0.846 6.493-0.407-0.045c-0.893 0-1.676 0.812-1.676 1.608 0 0.752 0.595 1.383 1.378 1.548l1.018 0.226c1.676-3.051 2.631-6.042 2.631-8.973 0-2.645-0.36-5.291-0.423-7.996 0-1.202 0.486-2.3 1.253-3.156 0.783 0.857 1.253 1.954 1.253 3.156 0 2.705-0.423 5.351-0.423 7.996 0 2.931 0.955 5.922 2.631 8.973l1.018-0.226c0.783-0.165 1.378-0.812 1.378-1.548 0-0.812-0.783-1.608-1.676-1.608l-0.423 0.060 0.846-6.493c0.423-3.277 2.396-6.448 5.388-7.876v23.117h-5.576c-0.423 2.179-1.613 4.148-3.414 5.351-0.423 0.286-0.783 0.631-1.018 1.097-0.219-0.466-0.579-0.812-0.987-1.112zM2.647 17.556c0.235-0.857 0.893-1.608 1.738-2.074l-0.658-5.351c-0.235-1.668-0.955-3.156-2.036-4.374v11.784h0.955v0.015zM5.466 23.929c0-0.812 0.125-1.548 0.298-2.3l-0.783-0.18c-1.143-0.346-2.036-1.203-2.334-2.3h-0.955v4.78h3.774zM9.178 23.929c0-0.977-0.783-1.834-1.801-1.954-0.172 0.631-0.298 1.263-0.298 1.954h2.099zM9.178 25.552h-1.864c0.298 1.263 0.955 2.42 1.864 3.397v-3.397zM11.809 20.547c-0.72-1.262-1.378-2.585-1.801-3.968-0.423 1.383-1.081 2.706-1.801 3.968 0.72 0.165 1.316 0.631 1.801 1.157 0.486-0.526 1.081-0.992 1.801-1.157zM12.952 23.929c0-0.691-0.125-1.323-0.297-1.954-1.018 0.12-1.801 0.977-1.801 1.954h2.099zM12.717 25.552h-1.864v3.397c0.908-0.992 1.566-2.134 1.864-3.397zM18.34 23.929v-4.78h-0.955c-0.298 1.097-1.206 1.954-2.334 2.3l-0.783 0.18c0.172 0.752 0.298 1.488 0.298 2.3h3.774zM18.34 17.556v-11.799c-1.081 1.202-1.864 2.706-2.036 4.374l-0.658 5.351c0.846 0.466 1.504 1.203 1.739 2.074h0.955z"></path>
</symbol>
<symbol id="icon-lock" viewBox="0 0 32 32">
<path stroke-width="2.2857" stroke-miterlimit="4" stroke-linecap="round" stroke-linejoin="round" d="M22.667 14.667v-4c0-3.682-2.985-6.667-6.667-6.667s-6.667 2.985-6.667 6.667v4M10.4 28h11.2c2.24 0 3.36 0 4.216-0.436 0.753-0.383 1.365-0.995 1.748-1.748 0.436-0.856 0.436-1.976 0.436-4.216v-0.533c0-2.24 0-3.36-0.436-4.216-0.383-0.753-0.995-1.365-1.748-1.748-0.856-0.436-1.976-0.436-4.216-0.436h-11.2c-2.24 0-3.36 0-4.216 0.436-0.753 0.384-1.365 0.995-1.748 1.748-0.436 0.856-0.436 1.976-0.436 4.216v0.533c0 2.24 0 3.36 0.436 4.216 0.383 0.753 0.995 1.365 1.748 1.748 0.856 0.436 1.976 0.436 4.216 0.436z"></path>
</symbol>
<symbol id="icon-mail-02" viewBox="0 0 32 32">
<path stroke-width="2.2857" stroke-miterlimit="4" stroke-linecap="round" stroke-linejoin="round" d="M28.666 24l-8.857-8M12.19 16l-8.857 8M2.667 9.333l10.887 7.621c0.882 0.617 1.322 0.926 1.802 1.045 0.423 0.106 0.866 0.106 1.29 0 0.479-0.12 0.92-0.428 1.802-1.045l10.887-7.621M9.067 26.667h13.867c2.24 0 3.36 0 4.216-0.436 0.753-0.384 1.365-0.995 1.748-1.748 0.436-0.856 0.436-1.976 0.436-4.216v-8.533c0-2.24 0-3.36-0.436-4.216-0.383-0.753-0.995-1.365-1.748-1.748-0.856-0.436-1.976-0.436-4.216-0.436h-13.867c-2.24 0-3.36 0-4.216 0.436-0.753 0.383-1.365 0.995-1.748 1.748-0.436 0.856-0.436 1.976-0.436 4.216v8.533c0 2.24 0 3.36 0.436 4.216 0.384 0.753 0.995 1.365 1.748 1.748 0.856 0.436 1.976 0.436 4.216 0.436z"></path>
</symbol>
<symbol id="icon-arrow-up" viewBox="0 0 32 32">
<path d="M4.5 19.6l11.2-11.233c0.133-0.133 0.278-0.228 0.433-0.283s0.322-0.084 0.5-0.084c0.178 0 0.345 0.028 0.5 0.084s0.3 0.149 0.433 0.283l11.233 11.233c0.311 0.311 0.467 0.7 0.467 1.167s-0.167 0.867-0.5 1.2c-0.333 0.333-0.722 0.5-1.167 0.5s-0.833-0.167-1.167-0.5l-9.8-9.8-9.8 9.8c-0.311 0.311-0.694 0.467-1.149 0.467s-0.851-0.167-1.184-0.5-0.5-0.722-0.5-1.167c0-0.444 0.167-0.833 0.5-1.167z"></path>
</symbol>
<symbol id="icon-trash" viewBox="0 0 32 32">
<path stroke-width="2.9091" stroke-miterlimit="4" stroke-linecap="round" stroke-linejoin="round" d="M12 4h8M4 8h24M25.333 8l-0.935 14.026c-0.14 2.104-0.21 3.157-0.665 3.954-0.4 0.702-1.004 1.267-1.731 1.619-0.826 0.4-1.881 0.4-3.99 0.4h-4.025c-2.109 0-3.163 0-3.99-0.4-0.727-0.353-1.331-0.917-1.731-1.619-0.455-0.798-0.525-1.85-0.665-3.954l-0.935-14.026M13.333 14v6.667M18.667 14v6.667"></path>
</symbol>
<symbol id="icon-user" viewBox="0 0 32 32">
<path d="M5.333 29.333c0-2.829 1.124-5.542 3.124-7.543s4.713-3.124 7.542-3.124c2.829 0 5.542 1.124 7.542 3.124s3.124 4.714 3.124 7.543h-21.333zM16 17.333c-4.42 0-8-3.58-8-8s3.58-8 8-8c4.42 0 8 3.58 8 8s-3.58 8-8 8z"></path>
</symbol>
<symbol id="icon-close" viewBox="0 0 32 32">
<path  stroke-width="3.4286" stroke-miterlimit="4" stroke-linecap="round" stroke-linejoin="round" d="M24 8l-16 16M8 8l16 16"></path>
</symbol>
<symbol id="icon-plug-1" viewBox="0 0 34 32">
<path d="M33.311 7.713c-0.729-0.394-1.489-0.722-2.281-1.001v19.742c-1.769-0.673-3.584-1.017-5.43-1.017-2.948 0-5.865 0.886-8.533 2.593v-19.856c-2.514-1.526-5.415-2.429-8.533-2.429-2.777 0-5.399 0.722-7.711 1.969-0.512 0.263-0.822 0.837-0.822 1.444v19.824c0 0.952 0.729 1.625 1.552 1.625 0.248 0 0.496-0.066 0.745-0.197 1.877-1.034 3.987-1.69 6.237-1.69 3.212 0 6.175 1.346 8.533 3.282 2.358-1.936 5.322-3.282 8.533-3.282 2.25 0 4.36 0.656 6.237 1.707 0.248 0.131 0.496 0.197 0.745 0.197 0.807 0 1.551-0.673 1.551-1.625v-19.84c0-0.607-0.31-1.182-0.822-1.444zM13.964 26.453c-1.769-0.673-3.584-1.017-5.43-1.017s-3.662 0.345-5.43 1.017v-16.263c1.722-0.771 3.537-1.165 5.43-1.165 1.862 0 3.708 0.41 5.43 1.182v16.246zM27.927 0l-7.758 8.205v15.59l7.758-7.385v-16.41z"></path>
</symbol>
<symbol id="bookshelf" viewBox="0 0 78 14">
 <path
d="M9.702 3.73301C9.702 1.663 8.172 0.493005 5.526 0.493005H0V13.363H5.832C8.496 13.363 10.206 12.085 10.206 9.60101C10.206 7.67501 9.054 6.68501 7.704 6.45101V6.41501C8.766 6.05501 9.702 5.31701 9.702 3.73301ZM2.142 5.821V2.31101H5.58C6.858 2.31101 7.56 2.941 7.56 4.07501C7.56 5.20901 6.984 5.821 5.454 5.821H2.142ZM2.142 7.42301H5.904C7.254 7.42301 8.064 8.16101 8.064 9.47501C8.064 10.681 7.506 11.545 5.67 11.545H2.142V7.42301Z">
</path>
<path
d="M15.7018 13.633C12.8218 13.633 11.0758 11.635 11.0758 8.77301C11.0758 5.91101 12.8218 3.913 15.7018 3.913C18.5818 3.913 20.3278 5.91101 20.3278 8.77301C20.3278 11.635 18.5818 13.633 15.7018 13.633ZM15.7018 12.085C17.5018 12.085 18.4378 10.663 18.4378 8.77301C18.4378 6.86501 17.5018 5.46101 15.7018 5.46101C13.9018 5.46101 12.9658 6.86501 12.9658 8.77301C12.9658 10.663 13.9018 12.085 15.7018 12.085Z">
</path>
<path
d="M25.774 13.633C22.894 13.633 21.148 11.635 21.148 8.77301C21.148 5.91101 22.894 3.913 25.774 3.913C28.654 3.913 30.4 5.91101 30.4 8.77301C30.4 11.635 28.654 13.633 25.774 13.633ZM25.774 12.085C27.574 12.085 28.51 10.663 28.51 8.77301C28.51 6.86501 27.574 5.46101 25.774 5.46101C23.974 5.46101 23.038 6.86501 23.038 8.77301C23.038 10.663 23.974 12.085 25.774 12.085Z">
</path>
<path
d="M31.7063 0.493005V13.363H33.5963V10.033L34.8743 8.82701L37.7723 13.363H40.0403L36.1703 7.58501L39.6623 4.165H37.3403L33.5963 7.85501V0.493005H31.7063Z">
</path>
<path
d="M44.5964 7.80101C43.2644 7.49501 42.2384 7.42301 42.2384 6.48701C42.2384 5.83901 42.8504 5.40701 43.9844 5.40701C45.4604 5.40701 45.8204 6.14501 45.9464 6.86501H47.7824C47.6564 5.26301 46.4684 3.913 43.9664 3.913C41.6624 3.913 40.3304 5.11901 40.3304 6.63101C40.3304 8.71901 42.3104 9.00701 43.7684 9.34901C45.1184 9.67301 46.2164 9.76301 46.2164 10.915C46.2164 11.491 45.6584 12.139 44.3444 12.139C42.4004 12.139 41.9684 11.293 41.8784 10.303H40.0424C40.1324 12.247 41.4104 13.633 44.3804 13.633C46.6124 13.633 48.1244 12.535 48.1244 10.771C48.1244 8.57501 46.2884 8.19701 44.5964 7.80101Z">
</path>
<path
d="M54.3039 3.913C52.7559 3.913 51.8019 4.63301 51.3159 5.35301H51.2799V0.493005H49.3899V13.363H51.2799V7.76501C51.2799 6.39701 52.2699 5.51501 53.6559 5.51501C54.9699 5.51501 55.4919 6.30701 55.4919 7.54901V13.363H57.3999V7.00901C57.3999 4.90301 56.0499 3.913 54.3039 3.913Z">
</path>
<path
d="M63.1962 12.085C61.5222 12.085 60.5322 10.807 60.5322 9.25901H67.5882C67.5882 5.98301 66.1302 3.913 63.1602 3.913C60.3882 3.913 58.6422 5.78501 58.6422 8.77301C58.6422 11.653 60.3882 13.633 63.2502 13.633C65.6082 13.633 66.9762 12.301 67.4442 10.555H65.5542C65.3922 11.113 64.7622 12.085 63.1962 12.085ZM63.1602 5.40701C64.6902 5.40701 65.6982 6.43301 65.6982 7.85501H60.5322C60.5322 6.43301 61.6302 5.40701 63.1602 5.40701Z">
</path>
<path d="M68.92 0.493005V13.363H70.828V0.493005H68.92Z"></path>
<path
d="M77.0013 2.04101V0.493005C76.6233 0.421005 76.2093 0.367004 75.7413 0.367004C74.2293 0.367004 73.4013 1.05101 73.4013 2.99501V4.165H72.0873V5.71301H73.4013V13.363H75.3093V5.71301H77.0013V4.165H75.3093V3.15701C75.3093 2.11301 75.7773 1.98701 77.0013 2.04101Z">
</path>
</symbol>
<symbol id="bag" viewBox="0 0 20 20">
<path
d="M15.8335 5.83335H13.3335V5.00002C13.3335 4.11596 12.9823 3.26812 12.3572 2.643C11.7321 2.01788 10.8842 1.66669 10.0002 1.66669C9.11611 1.66669 8.26826 2.01788 7.64314 2.643C7.01802 3.26812 6.66683 4.11596 6.66683 5.00002V5.83335H4.16683C3.94582 5.83335 3.73385 5.92115 3.57757 6.07743C3.42129 6.23371 3.3335 6.44567 3.3335 6.66669V15.8334C3.3335 16.4964 3.59689 17.1323 4.06573 17.6011C4.53457 18.07 5.17045 18.3334 5.8335 18.3334H14.1668C14.8299 18.3334 15.4658 18.07 15.9346 17.6011C16.4034 17.1323 16.6668 16.4964 16.6668 15.8334V6.66669C16.6668 6.44567 16.579 6.23371 16.4227 6.07743C16.2665 5.92115 16.0545 5.83335 15.8335 5.83335ZM8.33349 5.00002C8.33349 4.55799 8.50909 4.13407 8.82165 3.82151C9.13421 3.50895 9.55813 3.33335 10.0002 3.33335C10.4422 3.33335 10.8661 3.50895 11.1787 3.82151C11.4912 4.13407 11.6668 4.55799 11.6668 5.00002V5.83335H8.33349V5.00002ZM15.0002 15.8334C15.0002 16.0544 14.9124 16.2663 14.7561 16.4226C14.5998 16.5789 14.3878 16.6667 14.1668 16.6667H5.8335C5.61248 16.6667 5.40052 16.5789 5.24424 16.4226C5.08796 16.2663 5.00016 16.0544 5.00016 15.8334V7.50002H6.66683V8.33335C6.66683 8.55437 6.75463 8.76633 6.91091 8.92261C7.06719 9.07889 7.27915 9.16669 7.50016 9.16669C7.72117 9.16669 7.93314 9.07889 8.08942 8.92261C8.2457 8.76633 8.33349 8.55437 8.33349 8.33335V7.50002H11.6668V8.33335C11.6668 8.55437 11.7546 8.76633 11.9109 8.92261C12.0672 9.07889 12.2791 9.16669 12.5002 9.16669C12.7212 9.16669 12.9331 9.07889 13.0894 8.92261C13.2457 8.76633 13.3335 8.55437 13.3335 8.33335V7.50002H15.0002V15.8334Z">
</path>
</symbol> 
<symbol id="burger" viewBox="0 0 32 32">
 <path stroke-linecap="round" stroke-linejoin="round" stroke-width="2.286"
d="M22.667 13.333H4M28 8H4M28 18.667H4M22.667 24H4" />
 </symbol>
 <symbol id="icon-user-header" viewBox="0 0 32 32">
<path fill="#f6f6f6" style="fill: var(--color1, #f6f6f6)"
d="M32 16c0 8.837-7.163 16-16 16s-16-7.163-16-16c0-8.837 7.163-16 16-16s16 7.163 16 16z"></path>
<path fill="#4f2ee8" style="fill: var(--color2, #4f2ee8)"
 d="M10.522 22.847c0-1.453 0.577-2.846 1.604-3.873s2.421-1.604 3.873-1.604c1.453 0 2.846 0.577 3.873 1.604s1.604 2.42 1.604 3.873h-10.955zM16 16.685c-2.27 0-4.108-1.838-4.108-4.108s1.838-4.108 4.108-4.108c2.27 0 4.108 1.838 4.108 4.108s-1.838 4.108-4.108 4.108z">
</path>
 </symbol>              
<symbol id="icon-plug-2" viewBox="0 0 35 32">
<path d="M34.352 7.713c-0.752-0.394-1.536-0.722-2.352-1.001v19.742c-1.824-0.673-3.696-1.017-5.6-1.017-3.040 0-6.048 0.886-8.8 2.593v-19.856c-2.592-1.526-5.584-2.429-8.8-2.429-2.864 0-5.568 0.722-7.952 1.969-0.528 0.263-0.848 0.837-0.848 1.444v19.824c0 0.952 0.752 1.625 1.6 1.625 0.256 0 0.512-0.066 0.768-0.197 1.936-1.034 4.112-1.69 6.432-1.69 3.312 0 6.368 1.346 8.8 3.282 2.432-1.936 5.488-3.282 8.8-3.282 2.32 0 4.496 0.656 6.432 1.707 0.256 0.131 0.512 0.197 0.768 0.197 0.832 0 1.6-0.673 1.6-1.625v-19.84c0-0.607-0.32-1.182-0.848-1.444zM14.4 26.453c-1.824-0.673-3.696-1.017-5.6-1.017s-3.776 0.345-5.6 1.017v-16.263c1.776-0.771 3.648-1.165 5.6-1.165 1.92 0 3.824 0.41 5.6 1.182v16.246zM28.8 0l-8 8.205v15.59l8-7.385v-16.41z"></path>
</symbol>
<symbol id="icon-plug-3" viewBox="0 0 36 32">
<path d="M34.699 7.713c-0.76-0.394-1.551-0.722-2.376-1.001v19.741c-1.842-0.673-3.733-1.017-5.657-1.017-3.071 0-6.109 0.886-8.889 2.593v-19.856c-2.618-1.526-5.64-2.429-8.889-2.429-2.893 0-5.624 0.722-8.032 1.969-0.533 0.263-0.857 0.837-0.857 1.444v19.824c0 0.952 0.76 1.625 1.616 1.625 0.259 0 0.517-0.066 0.776-0.197 1.956-1.034 4.154-1.69 6.497-1.69 3.345 0 6.432 1.346 8.889 3.282 2.457-1.936 5.543-3.282 8.889-3.282 2.343 0 4.541 0.656 6.497 1.707 0.259 0.131 0.517 0.197 0.776 0.197 0.84 0 1.616-0.673 1.616-1.625v-19.84c0-0.607-0.323-1.181-0.857-1.444zM14.545 26.453c-1.842-0.673-3.733-1.017-5.657-1.017s-3.814 0.345-5.657 1.017v-16.263c1.794-0.771 3.685-1.165 5.657-1.165 1.939 0 3.863 0.41 5.657 1.181v16.246zM29.091 0l-8.081 8.205v15.59l8.081-7.385v-16.41z"></path>
</symbol>
<symbol id="icon-plug-4" viewBox="0 0 35 32">
<path d="M34.352 7.713c-0.752-0.394-1.536-0.722-2.352-1.001v19.742c-1.824-0.673-3.696-1.017-5.6-1.017-3.040 0-6.048 0.886-8.8 2.593v-19.856c-2.592-1.526-5.584-2.429-8.8-2.429-2.864 0-5.568 0.722-7.952 1.969-0.528 0.263-0.848 0.837-0.848 1.444v19.824c0 0.952 0.752 1.625 1.6 1.625 0.256 0 0.512-0.066 0.768-0.197 1.936-1.034 4.112-1.69 6.432-1.69 3.312 0 6.368 1.346 8.8 3.282 2.432-1.936 5.488-3.282 8.8-3.282 2.32 0 4.496 0.656 6.432 1.707 0.256 0.131 0.512 0.197 0.768 0.197 0.832 0 1.6-0.673 1.6-1.625v-19.84c0-0.607-0.32-1.182-0.848-1.444zM14.4 26.453c-1.824-0.673-3.696-1.017-5.6-1.017s-3.776 0.345-5.6 1.017v-16.263c1.776-0.771 3.648-1.165 5.6-1.165 1.92 0 3.824 0.41 5.6 1.182v16.246zM28.8 0l-8 8.205v15.59l8-7.385v-16.41z"></path>
</symbol>
<symbol id="icon-logo" viewBox="0 0 32 32">
<path fill="#f6f6f6" style="fill: var(--color1, #f6f6f6)" d="M0 0l16.343 16.171 15.657 15.829v-32h-32z"></path>
<path fill="#f6f6f6" style="fill: var(--color1, #f6f6f6)" d="M4.457 4.229l11.943 11.829 11.257 11.486h-23.2v-23.314z"></path>
<path fill="#4f2ee8" style="fill: var(--color2, #4f2ee8)" d="M27.733 27.618l-11.943-11.829-11.257-11.486h23.2v23.314z"></path>
<path fill="#4f2ee8" style="fill: var(--color2, #4f2ee8)" d="M9.257 9.029l13.6 13.6h-13.6v-13.6z"></path>
<path fill="#f6f6f6" style="fill: var(--color1, #f6f6f6)" d="M9.257 9.029l13.6 13.6v-13.6h-13.6z"></path>
</symbol>
<symbol id="icon-support-svg-down" viewBox="0 0 32 32">
<path d="M15.055 17.868c0.241 0.243 0.576 0.394 0.945 0.394s0.704-0.15 0.945-0.393l0-0 6.109-6.121c0.241-0.243 0.576-0.393 0.945-0.393 0.736 0 1.333 0.597 1.333 1.333 0 0.367-0.148 0.699-0.388 0.94l-6.119 6.121c-0.724 0.723-1.723 1.169-2.826 1.169s-2.103-0.447-2.826-1.169l-6.121-6.121c-0.239-0.241-0.387-0.573-0.387-0.94 0-0.737 0.597-1.334 1.334-1.334 0.37 0 0.705 0.151 0.947 0.394l0 0 6.106 6.119z"></path>
</symbol>
</defs>
</svg>
